<?xml version="1.0" encoding="UTF-8" standalone="no"?>
<!DOCTYPE svg PUBLIC "-//W3C//DTD SVG 1.1//EN" "http://www.w3.org/Graphics/SVG/1.1/DTD/svg11.dtd">
<svg width="100%" height="100%" viewBox="0 0 96 96" version="1.1" xmlns="http://www.w3.org/2000/svg" xmlns:xlink="http://www.w3.org/1999/xlink" xml:space="preserve" xmlns:serif="http://www.serif.com/" style="fill-rule:evenodd;clip-rule:evenodd;">
    <g transform="matrix(1,0,0,1,-0.94043,71.7159)">
        <g id="text3682">
            <text x="0px" y="0px" style="font-family:'Consolas', monospace;font-size:60px;fill:white;stroke:black;stroke-width:3.2px;">CSS</text>
        </g>
    </g>
    <g id="layer1" transform="matrix(1,0,0,1,0,-1026.52)">
        <g id="g4611">
            <path id="path4512" d="M48,1034.84C26.23,1034.84 8.315,1052.75 8.315,1074.52C8.315,1096.29 26.23,1114.2 48,1114.2C69.77,1114.2 87.685,1096.29 87.685,1074.52C87.685,1052.75 69.77,1034.84 48,1034.84ZM48,1041.45C55.623,1041.46 63.014,1044.1 68.913,1048.93L22.407,1095.43C17.579,1089.54 14.936,1082.14 14.929,1074.52C14.929,1056.38 29.858,1041.45 48,1041.45ZM73.593,1053.61C78.421,1059.5 81.064,1066.9 81.071,1074.52C81.071,1092.66 66.142,1107.59 48,1107.59C40.377,1107.58 32.986,1104.94 27.087,1100.11L73.593,1053.61Z" style="fill:rgb(255,0,0);fill-opacity:0.99;fill-rule:nonzero;"/>
        </g>
    </g>
</svg>
